<?xml version="1.0" encoding="UTF-8" standalone="no"?>
<!-- Created with Inkscape (http://www.inkscape.org/) -->

<svg
   width="240"
   height="240"
   viewBox="0 0 240 240"
   version="1.1"
   id="svg1"
   sodipodi:docname="logo.svg"
   inkscape:version="1.4.4 (dcaf3e7d9e, 2026-05-05)"
   xmlns:inkscape="http://www.inkscape.org/namespaces/inkscape"
   xmlns:sodipodi="http://sodipodi.sourceforge.net/DTD/sodipodi-0.dtd"
   xmlns="http://www.w3.org/2000/svg"
   xmlns:svg="http://www.w3.org/2000/svg">
  <sodipodi:namedview
     id="namedview1"
     pagecolor="#1f1b22"
     bordercolor="#000000"
     borderopacity="0.25"
     inkscape:showpageshadow="2"
     inkscape:pageopacity="0.0"
     inkscape:pagecheckerboard="0"
     inkscape:deskcolor="#d1d1d1"
     inkscape:document-units="px"
     inkscape:zoom="0.53012818"
     inkscape:cx="12.261186"
     inkscape:cy="-5.6590088"
     inkscape:window-width="1440"
     inkscape:window-height="905"
     inkscape:window-x="0"
     inkscape:window-y="0"
     inkscape:window-maximized="0"
     inkscape:current-layer="layer1" />
  <defs
     id="defs1">
    <rect
       x="172.6134"
       y="353.4465"
       width="391.80505"
       height="252.07037"
       id="rect4" />
    <rect
       x="254.81027"
       y="495.92105"
       width="68.497383"
       height="32.878742"
       id="rect3" />
    <rect
       x="164.39372"
       y="356.1864"
       width="400.02472"
       height="271.24963"
       id="rect2" />
    <rect
       x="178.0932"
       y="416.46411"
       width="383.58536"
       height="282.20923"
       id="rect1" />
  </defs>
  <g
     inkscape:label="Layer 1"
     inkscape:groupmode="layer"
     id="layer1">
    <text
       xml:space="preserve"
       transform="scale(0.26458333)"
       id="text1"
       style="writing-mode:lr-tb;direction:ltr;white-space:pre;shape-inside:url(#rect1);display:inline;fill:#e04410;fill-opacity:1" />
    <text
       xml:space="preserve"
       transform="scale(0.26458333)"
       id="text2"
       style="writing-mode:lr-tb;direction:ltr;white-space:pre;shape-inside:url(#rect2);display:inline;fill:#e04410;fill-opacity:1" />
    <text
       xml:space="preserve"
       transform="scale(0.26458333)"
       id="text3"
       style="writing-mode:lr-tb;direction:ltr;white-space:pre;shape-inside:url(#rect3);display:inline;fill:#e04410;fill-opacity:1" />
    <path
       id="path4"
       style="fill:#e04410;fill-opacity:1;stroke-width:0.958169"
       d="m 103.17676,57.214821 a 65,65 0 0 1 79.60842,45.961939 l -28.97778,7.76457 A 35,35 0 0 0 110.94133,86.192596 Z" />
    <path
       id="path4-0"
       style="fill:#e04410;fill-opacity:1;stroke-width:0.958169"
       d="M 154.20201,26.030738 A 100,100 0 0 0 26.030738,85.797986 L 54.221517,96.05859 A 70,70 0 0 1 143.94141,54.221517 Z" />
    <path
       id="path4-6"
       style="fill:#e04410;fill-opacity:1;stroke-width:0.958169"
       d="M 136.82324,182.78518 A 65,65 0 0 1 57.214821,136.82324 l 28.977775,-7.76457 a 35,35 0 0 0 42.866074,24.74873 z" />
    <path
       id="path4-0-3"
       style="fill:#e04410;fill-opacity:1;stroke-width:0.958169"
       d="M 85.797986,213.96926 A 100,100 0 0 0 213.96926,154.20201 l -28.19078,-10.2606 a 70,70 0 0 1 -89.71989,41.83707 z" />
    <path
       id="path5"
       style="fill:#e04410;fill-opacity:1;stroke-width:1.46845"
       d="M 120 80 A 40 40 0 0 0 80 120 A 40 40 0 0 0 120 160 A 40 40 0 0 0 160 120 A 40 40 0 0 0 120 80 z M 120 85 A 35 35 0 0 1 155 120 A 35 35 0 0 1 120 155 A 35 35 0 0 1 85 120 A 35 35 0 0 1 120 85 z " />
    <path
       id="path5-1"
       style="fill:#e04410;fill-opacity:1;stroke-width:3.67114"
       d="M 120 20 A 100 100 0 0 0 20 120 A 100 100 0 0 0 120 220 A 100 100 0 0 0 220 120 A 100 100 0 0 0 120 20 z M 120 25 A 95 95 0 0 1 215 120 A 95 95 0 0 1 120 215 A 95 95 0 0 1 25 120 A 95 95 0 0 1 120 25 z " />
  </g>
</svg>
